<svg width="17" height="17" viewBox="0 0 17 17" fill="none" xmlns="http://www.w3.org/2000/svg">
<path fill-rule="evenodd" clip-rule="evenodd" d="M2.5166 9.54829C2.88164 12.3913 5.44217 14.6008 8.5366 14.6008C11.8806 14.6008 14.6011 11.8801 14.6011 8.53612C14.6011 5.49786 12.3514 2.89525 9.54878 2.51855V8.84882C9.54878 9.23508 9.23556 9.54829 8.8493 9.54829H2.5166ZM8.53672 15.9999C4.42142 15.9999 1.07324 12.7919 1.07324 8.84893C1.07324 8.46267 1.38646 8.14945 1.77272 8.14945H8.14994V1.77223C8.14994 1.38597 8.46316 1.07275 8.84942 1.07275C12.7256 1.07275 16.0002 4.49067 16.0002 8.53623C16.0002 12.6517 12.652 15.9999 8.53672 15.9999ZM1.26416 5.23964H5.23981V1.26416C3.17651 1.5379 1.5379 3.17633 1.26416 5.23964ZM5.852 6.46383H0.612C0.273913 6.46383 0 6.18991 0 5.85183C0 2.62504 2.62522 0 5.852 0C6.19009 0 6.464 0.273913 6.464 0.612V5.85183C6.464 6.18991 6.19009 6.46383 5.852 6.46383Z" transform="translate(0.762939 0.59375)" fill="#8D96B2"/>
</svg>
