<svg width="17" height="12" viewBox="0 0 17 12" fill="none" xmlns="http://www.w3.org/2000/svg">
<path fill-rule="evenodd" clip-rule="evenodd" d="M2.38139 4.69212H9.1753C9.55948 4.69212 9.87096 4.38151 9.87096 3.99646C9.87096 3.61142 9.55948 3.30081 9.1753 3.30081H2.38139L4.42365 1.21977C4.696 0.948291 4.69722 0.484465 4.42626 0.211248C4.1553 -0.061796 3.71478 -0.0741438 3.44243 0.197508L0.205043 3.4196C0.0737391 3.55055 0 3.72568 0 3.91125C0 4.09681 0.0737391 4.27333 0.205043 4.40412L3.44243 7.63125C3.57809 7.76655 3.75565 7.83386 3.93304 7.83386C4.11165 7.83386 4.29026 7.76499 4.42626 7.62812C4.69722 7.35507 4.696 6.95681 4.42365 6.68516L2.38139 4.69212ZM16 7.21363C16 7.39919 15.9261 7.57572 15.7948 7.70667L12.5574 10.9315C12.4218 11.0668 12.2442 11.1289 12.0668 11.1289C11.8882 11.1289 11.7096 11.0491 11.5736 10.9121C11.3026 10.639 11.3039 10.1752 11.5764 9.90354L13.6185 7.82267H6.82456C6.44038 7.82267 6.12891 7.51206 6.12891 7.12702C6.12891 6.74198 6.44038 6.43137 6.82456 6.43137H13.6185L11.5764 4.4385C11.3039 4.16685 11.3026 3.76859 11.5736 3.49554C11.8447 3.22267 12.2851 3.22128 12.5574 3.49293L15.7948 6.72076C15.9261 6.85154 16 7.02806 16 7.21363Z" transform="translate(0.785645 0.689819)" fill="#F1F1F1"/>
</svg>
