<svg width="17" height="17" viewBox="0 0 17 17" fill="none" xmlns="http://www.w3.org/2000/svg">
<path id="graph-pie" fill-rule="evenodd" clip-rule="evenodd" d="M2.5166 9.54829C2.88164 12.3913 5.44217 14.6008 8.5366 14.6008C11.8806 14.6008 14.6011 11.8801 14.6011 8.53612C14.6011 5.49786 12.3514 2.89525 9.54878 2.51855V8.84882C9.54878 9.23508 9.23556 9.54829 8.8493 9.54829H2.5166ZM8.53672 16.0004C4.42142 16.0004 1.07324 12.7924 1.07324 8.84942C1.07324 8.46316 1.38646 8.14994 1.77272 8.14994H8.14994V1.77272C8.14994 1.38646 8.46316 1.07324 8.84942 1.07324C12.7256 1.07324 16.0002 4.49116 16.0002 8.53672C16.0002 12.6522 12.652 16.0004 8.53672 16.0004ZM1.26416 5.24013H5.23981V1.26465C3.17651 1.53839 1.5379 3.17682 1.26416 5.24013ZM5.852 6.46383H0.612C0.273913 6.46383 0 6.18991 0 5.85183C0 2.62504 2.62522 0 5.852 0C6.19009 0 6.464 0.273913 6.464 0.612V5.85183C6.464 6.18991 6.19009 6.46383 5.852 6.46383Z" transform="translate(0.762756 0.945312)" fill="#F1F1F1"/>
</svg>
