<svg width="17" height="16" viewBox="0 0 17 16" fill="none" xmlns="http://www.w3.org/2000/svg">
<path id="wallet" fill-rule="evenodd" clip-rule="evenodd" d="M14.5779 4.91851C14.5779 4.60758 14.3249 4.2666 14.0142 4.2666H1.71356C1.55303 4.2666 1.42236 4.48527 1.42236 4.64598V6.1338V12.5283C1.42236 12.678 1.54432 12.7999 1.69419 12.7999H14.5577C14.5689 12.7999 14.5779 12.7909 14.5779 12.7798V4.91851ZM1.32227 2.13299C1.32227 2.52588 1.64067 2.8441 2.03338 2.8441H12.2668V1.73388C12.2668 1.56161 12.1271 1.42188 11.9548 1.42188H2.03338C1.64067 1.42188 1.32227 1.74028 1.32227 2.13299ZM16 4.91858V12.7799C16 13.5753 15.3529 14.2222 14.5575 14.2222H1.69404C0.759822 14.2222 0 13.4624 0 12.5284V6.13387V4.64604V2.12711C0 0.954311 0.953422 0 2.12533 0H11.9561C12.9348 0 13.6889 0.7968 13.6889 1.77636V2.84444H14.014C15.1092 2.84444 16 3.82347 16 4.91858ZM12.6772 7.69745C12.9101 7.92874 13.0416 8.24856 13.0416 8.57745C13.0416 8.90456 12.9101 9.22456 12.6772 9.45745C12.4461 9.68856 12.1261 9.8219 11.7972 9.8219C11.4701 9.8219 11.1501 9.68856 10.9172 9.45745C10.6861 9.22456 10.5527 8.90456 10.5527 8.57745C10.5527 8.24856 10.6861 7.92874 10.9172 7.69745C11.1501 7.46456 11.4701 7.33301 11.7972 7.33301C12.1261 7.33301 12.4461 7.46456 12.6772 7.69745Z" transform="translate(0.762756 0.945312)" fill="#8D96B2"/>
</svg>
