<svg width="103" height="20" xmlns="http://www.w3.org/2000/svg">
  <defs>
    <linearGradient x1="50%" y1="0%" x2="50%" y2="100%" id="a">
      <stop stop-color="#F9F9F9" offset="0%"/>
      <stop stop-color="#F1F1F1" offset="100%"/>
    </linearGradient>
  </defs>
  <g fill="none" fill-rule="evenodd">
    <path d="M24.372 4.056v8.687h.949c.173 0 .342-.005.508-.017.166-.011.332-.024.497-.04a4.543 4.543 0 0 0 1.582-.411c.49-.23.917-.531 1.282-.904s.652-.812.859-1.316c.207-.505.31-1.055.31-1.65a4.234 4.234 0 0 0-1.321-3.123 4.353 4.353 0 0 0-1.43-.904 4.728 4.728 0 0 0-1.745-.322h-1.491zm10.337 4.36c0 .799-.102 1.558-.305 2.277a8.128 8.128 0 0 1-.87 2.01 8.346 8.346 0 0 1-3.09 2.978 8.756 8.756 0 0 1-2.061.819 9.08 9.08 0 0 1-2.294.288h-5.57a.715.715 0 0 1-.361-.09c-.105-.06-.158-.189-.158-.385V.531c0-.158.043-.286.13-.384.086-.098.216-.147.39-.147h5.569c.79 0 1.553.098 2.288.294a8.668 8.668 0 0 1 3.801 2.135c.527.505.978 1.07 1.35 1.695.373.625.663 1.299.87 2.022.207.723.31 1.48.31 2.27zm17.25 7.536c0 .128-.022.25-.067.367a.565.565 0 0 1-.226.277.566.566 0 0 1-.294.158 1.57 1.57 0 0 1-.294.034h-2.225a.995.995 0 0 1-.384-.062.59.59 0 0 1-.237-.175 1.011 1.011 0 0 1-.153-.277 16.2 16.2 0 0 1-.13-.356l-.147-.508a6.56 6.56 0 0 1-.695.598 5.381 5.381 0 0 1-1.864.898 4.356 4.356 0 0 1-1.112.142 7.386 7.386 0 0 1-1.972-.26 7.288 7.288 0 0 1-3.248-1.892 7.402 7.402 0 0 1-1.886-3.277 7.554 7.554 0 0 1-.26-1.994c0-1.046.192-2.02.576-2.92a7.257 7.257 0 0 1 3.909-3.92 7.297 7.297 0 0 1 2.88-.57c.468 0 .903.052 1.305.158.403.105.772.248 1.108.429.335.18.638.397.909.65.271.252.508.525.712.819l.327-1.028c.076-.189.138-.341.187-.458a.81.81 0 0 1 .158-.26.42.42 0 0 1 .209-.113c.083-.019.2-.028.35-.028h1.683c.083 0 .181.011.294.034.113.022.21.075.294.158.105.083.18.177.226.282a.91.91 0 0 1 .068.362v12.732zM40.833 9.625c0 .497.077.962.231 1.396.155.433.375.807.661 1.124a3.137 3.137 0 0 0 2.373 1.028 3.59 3.59 0 0 0 2.536-1.028c.32-.317.57-.691.751-1.124.181-.434.271-.899.271-1.396 0-.482-.09-.941-.27-1.378a3.658 3.658 0 0 0-.752-1.152 3.56 3.56 0 0 0-1.13-.785 3.43 3.43 0 0 0-1.406-.289 3.07 3.07 0 0 0-2.373 1.074 3.56 3.56 0 0 0-.66 1.152 4.104 4.104 0 0 0-.232 1.378zm18.166 10.013c0 .2-.162.362-.363.362h-3.602a.362.362 0 0 1-.362-.362V3.22c0-.15.028-.275.085-.373.056-.098.126-.188.209-.271a.698.698 0 0 1 .305-.158c.105-.023.207-.034.305-.034h1.706c.143 0 .261.023.356.068a.627.627 0 0 1 .231.186c.06.08.111.17.153.271.04.102.08.213.118.333l.255.734a.362.362 0 0 0 .63.102l.228-.299c.215-.282.469-.538.763-.768.293-.23.643-.42 1.05-.57.407-.151.904-.227 1.491-.227 1.032 0 1.983.19 2.853.57.87.381 1.62.905 2.248 1.571a7.255 7.255 0 0 1 1.474 2.35c.354.9.531 1.874.531 2.92a7.92 7.92 0 0 1-.53 2.915 7.24 7.24 0 0 1-1.475 2.355 6.869 6.869 0 0 1-2.248 1.577c-.87.384-1.82.576-2.853.576-.49 0-.911-.059-1.265-.176a3.718 3.718 0 0 1-.943-.457 4.357 4.357 0 0 1-.729-.621.359.359 0 0 0-.621.244v3.6zm-.316-10.182v.17a3.55 3.55 0 0 0 1.05 2.536c.324.32.704.574 1.141.762.437.188.9.282 1.39.282.482 0 .922-.094 1.322-.282a3.192 3.192 0 0 0 1.028-.762c.286-.32.508-.699.666-1.136.158-.436.237-.904.237-1.4 0-.482-.079-.94-.237-1.373a3.524 3.524 0 0 0-.666-1.136 3.067 3.067 0 0 0-2.35-1.05 3.48 3.48 0 0 0-1.35.265 3.619 3.619 0 0 0-1.119.723c-.32.305-.58.665-.78 1.079a3.39 3.39 0 0 0-.332 1.322zm17.566 10.186c0 .198-.16.358-.358.358h-3.61a.358.358 0 0 1-.359-.358V3.22c0-.15.029-.275.085-.373.057-.098.126-.188.21-.271a.698.698 0 0 1 .304-.158c.106-.023.207-.034.305-.034h1.706c.143 0 .262.023.356.068a.627.627 0 0 1 .232.186c.06.08.11.17.152.271.041.102.081.213.119.333l.257.741c.094.27.45.328.623.101l.233-.305c.214-.282.468-.538.762-.768.294-.23.644-.42 1.05-.57.407-.151.905-.227 1.492-.227 1.032 0 1.983.19 2.853.57.87.381 1.619.905 2.248 1.571a7.255 7.255 0 0 1 1.474 2.35c.354.9.53 1.874.53 2.92a7.92 7.92 0 0 1-.53 2.915 7.24 7.24 0 0 1-1.474 2.355 6.869 6.869 0 0 1-2.248 1.577c-.87.384-1.821.576-2.853.576-.49 0-.911-.059-1.265-.176a3.718 3.718 0 0 1-.944-.457 4.357 4.357 0 0 1-.735-.628.355.355 0 0 0-.615.24v3.615zm-.316-10.186v.17a3.55 3.55 0 0 0 1.05 2.536c.325.32.705.574 1.142.762.436.188.9.282 1.39.282.481 0 .922-.094 1.321-.282a3.17 3.17 0 0 0 1.028-.762 3.44 3.44 0 0 0 .667-1.136c.158-.436.237-.904.237-1.4 0-.482-.08-.94-.237-1.373a3.524 3.524 0 0 0-.667-1.136 3.067 3.067 0 0 0-2.35-1.05 3.48 3.48 0 0 0-1.35.265 3.619 3.619 0 0 0-1.118.723c-.32.305-.58.665-.78 1.079-.2.414-.31.855-.333 1.322zm17.033 7.402a.342.342 0 0 0-.003-.252L87.624 3.525c-.12-.301-.122-.56-.005-.774.117-.215.374-.322.774-.322h2.79a.64.64 0 0 1 .463.175c.12.117.211.262.271.435l2.87 8.165a.343.343 0 0 0 .648-.002l2.809-8.163c.083-.24.188-.403.316-.486.128-.082.305-.124.531-.124h2.904c.21 0 .376.028.497.085.12.056.205.132.254.226.049.094.066.2.05.316a1.42 1.42 0 0 1-.09.344 4067.523 4067.523 0 0 0-3.106 7.711 547.36 547.36 0 0 0-1.102 2.762c-.358.904-.702 1.772-1.034 2.604a708.794 708.794 0 0 0-1.307 3.306.341.341 0 0 1-.319.217h-3.584a.343.343 0 0 1-.32-.466l1.03-2.676z" fill="url(#a)"/>
    <circle fill="#315EFB" cx="2.5" cy="4.5" r="2.5"/>
    <circle fill="#315EFB" cx="10.5" cy="12.5" r="2.5"/>
    <g transform="matrix(-1 0 0 1 13 3)" fill="#315EFB">
      <circle transform="matrix(1 0 0 -1 0 5)" cx="2.5" cy="2.5" r="2.5"/>
      <circle transform="matrix(1 0 0 -1 0 21)" cx="10.5" cy="10.5" r="2.5"/>
    </g>
  </g>
</svg>
