<svg width="36" height="36" xmlns="http://www.w3.org/2000/svg" xmlns:xlink="http://www.w3.org/1999/xlink">
  <defs>
    <linearGradient x1="50%" y1="0%" x2="50%" y2="100%" id="a">
      <stop stop-color="#FCCD94" offset="0%"/>
      <stop stop-color="#EB9E41" offset="100%"/>
    </linearGradient>
    <linearGradient x1="50%" y1="0%" x2="50%" y2="100%" id="c">
      <stop stop-color="#FFF" offset="0%"/>
      <stop offset="100%"/>
    </linearGradient>
    <path d="M15.055 0h5.89c4.955 0 6.96.557 8.916 1.603a10.904 10.904 0 0 1 4.536 4.536C35.443 8.094 36 10.099 36 15.055v5.89c0 4.955-.557 6.96-1.603 8.916a10.904 10.904 0 0 1-4.536 4.536C27.906 35.443 25.901 36 20.945 36h-5.89c-4.955 0-6.96-.557-8.916-1.603a10.904 10.904 0 0 1-4.536-4.536C.557 27.906 0 25.901 0 20.945v-5.89C0 10.1.557 8.095 1.603 6.14a10.904 10.904 0 0 1 4.536-4.536C8.094.557 10.099 0 15.055 0zm7.643 24.988l.988 3.447-2.079.596-.974-3.4c-.538.154-1.091.308-1.664.46l.98 3.416-2.077.595-.99-3.453c-.488.136-.985.27-1.489.414l-2.704.775-.3-2.6s1.545-.417 1.512-.433c.587-.17.622-.636.583-.912l-1.562-5.45.22-.062c-.09.013-.166.032-.224.048l-1.116-3.89c-.2-.398-.614-.808-1.456-.567.017-.036-1.51.434-1.51.434l-.636-2.22 2.867-.82.003.01c.43-.124.87-.259 1.317-.397l-.978-3.414 2.078-.595.959 3.346c.551-.17 1.107-.34 1.653-.498l-.953-3.324 2.078-.596.979 3.414c2.75-.534 5.111-.318 6.054 2.076.692 1.75.249 3.047-.78 4.006 2.12-.092 3.7.73 4.213 3.442.637 3.368-1.556 4.95-4.992 6.152zm-2.05-11.561c-.702-2.449-4.28-1.019-5.453-.682l1.19 4.149c1.173-.337 4.936-1.12 4.264-3.467zm-3.663 5.561l1.312 4.575c1.408-.405 5.91-1.378 5.17-3.958-.772-2.692-5.073-1.02-6.482-.617z" id="b"/>
  </defs>
  <g fill="none" fill-rule="evenodd">
    <use fill="url(#a)" xlink:href="#b"/>
    <use fill-opacity=".12" fill="url(#c)" style="mix-blend-mode:soft-light" xlink:href="#b"/>
  </g>
</svg>
