<svg width="36" height="36" xmlns="http://www.w3.org/2000/svg" xmlns:xlink="http://www.w3.org/1999/xlink">
  <defs>
    <linearGradient x1="50%" y1=".648%" x2="50%" y2="99.534%" id="a">
      <stop stop-color="#F1B70B" offset="0%"/>
      <stop stop-color="#F17B0B" offset="100%"/>
    </linearGradient>
    <linearGradient x1="50%" y1="0%" x2="50%" y2="100%" id="c">
      <stop stop-color="#FFF" offset="0%"/>
      <stop offset="100%"/>
    </linearGradient>
    <path d="M15.055 0h5.89c4.955 0 6.96.557 8.916 1.603a10.904 10.904 0 0 1 4.536 4.536C35.443 8.094 36 10.099 36 15.055v5.89c0 4.955-.557 6.96-1.603 8.916a10.904 10.904 0 0 1-4.536 4.536C27.906 35.443 25.901 36 20.945 36h-5.89c-4.955 0-6.96-.557-8.916-1.603a10.904 10.904 0 0 1-4.536-4.536C.557 27.906 0 25.901 0 20.945v-5.89C0 10.1.557 8.095 1.603 6.14a10.904 10.904 0 0 1 4.536-4.536C8.094.557 10.099 0 15.055 0zm11.033 15.773c.352-2.359-1.443-3.626-3.898-4.472l.796-3.195-1.945-.484-.775 3.11a81.344 81.344 0 0 0-1.558-.366l.781-3.131-1.943-.485-.797 3.193a65.053 65.053 0 0 1-1.242-.291l.002-.01-2.682-.67-.517 2.077s1.443.33 1.412.351c.788.197.93.718.906 1.131l-.907 3.64c.055.013.125.033.202.064-.064-.016-.134-.034-.205-.05l-1.272 5.097c-.096.24-.34.599-.89.462.019.029-1.414-.353-1.414-.353l-.966 2.226 2.531.631c.47.118.932.242 1.386.358l-.805 3.231 1.943.485.797-3.197c.53.144 1.045.277 1.55.402l-.795 3.182 1.945.485.805-3.226c3.315.628 5.809.375 6.858-2.624.846-2.415-.042-3.808-1.786-4.716 1.27-.293 2.227-1.129 2.483-2.855zm-4.443 6.23c-.601 2.415-4.667 1.11-5.985.782l1.068-4.28c1.318.328 5.545.98 4.917 3.498zm.601-6.265c-.548 2.196-3.932 1.08-5.03.807l.968-3.883c1.098.274 4.633.785 4.062 3.076z" id="b"/>
  </defs>
  <g fill-rule="evenodd" fill="none">
    <use fill="url(#a)" xlink:href="#b"/>
    <use fill-opacity=".12" fill="url(#c)" style="mix-blend-mode:soft-light" xlink:href="#b"/>
  </g>
</svg>
