<svg width="36" height="36" xmlns="http://www.w3.org/2000/svg">
  <defs>
    <linearGradient x1="50%" y1="0%" x2="50%" y2="100%" id="a">
      <stop stop-color="#FDE785" offset="0%"/>
      <stop stop-color="#EBA809" offset="100%"/>
    </linearGradient>
  </defs>
  <path d="M15.055 0h5.89c4.955 0 6.96.557 8.916 1.603a10.904 10.904 0 0 1 4.536 4.536C35.443 8.094 36 10.099 36 15.055v5.89c0 4.955-.557 6.96-1.603 8.916a10.904 10.904 0 0 1-4.536 4.536C27.906 35.443 25.901 36 20.945 36h-5.89c-4.955 0-6.96-.557-8.916-1.603a10.904 10.904 0 0 1-4.536-4.536C.557 27.906 0 25.901 0 20.945v-5.89C0 10.1.557 8.095 1.603 6.14a10.904 10.904 0 0 1 4.536-4.536C8.094.557 10.099 0 15.055 0zm3.195 29.852c-6.263 0-11.34-5.078-11.34-11.341 0-6.263 5.077-11.341 11.34-11.341 6.264 0 11.341 5.078 11.341 11.34 0 6.264-5.077 11.342-11.34 11.342zM17.231 8.964c.003.902.003 1.804.003 2.706l1.35.003c.003-.926.005-1.852 0-2.776-.45.015-.903.036-1.353.067zm3.25 2.75c1.188.159 2.464.341 3.41 1.142 1.444 1.296 1.258 4.017-.51 4.956 1.058.248 2.107.951 2.368 2.064.34 1.458.07 3.206-1.102 4.233-1.162.954-2.733 1.08-4.169 1.217.006.844.004 1.686.002 2.532 3.02-.737 5.63-2.984 6.738-5.892 1.052-2.683.804-5.839-.683-8.31-1.312-2.227-3.543-3.866-6.048-4.493-.006.85-.007 1.7-.005 2.55h-.001zm-9.017-.037c1.31.062 2.619.05 3.928.048 0-.796.003-1.592-.004-2.388-1.466.476-2.771 1.328-3.925 2.34zM9.936 13.73c-1.54 2.62-1.713 5.98-.429 8.735 1.108 2.47 3.307 4.392 5.882 5.22.005-.794.003-1.59.003-2.384-1.314-.013-2.632.035-3.943-.036.014-.732.185-1.447.435-2.135.644-.014 1.315.099 1.937-.11.363-.306.26-.81.278-1.227-.018-2.386.01-4.773-.012-7.159.023-.385-.218-.8-.62-.876-.659-.13-1.335-.08-2.003-.084-.079-.536-.087-1.078-.096-1.622a.4.4 0 0 0-.073-.318c-.377.716-.977 1.281-1.359 1.995v.001zm7.351.104v3.518c1.177-.02 2.48.11 3.51-.573.853-.558.799-1.973-.083-2.474-1.029-.61-2.285-.437-3.426-.47zm0 5.411v3.903c1.452-.118 3.08.126 4.344-.749.903-.6.795-2.082-.136-2.6-1.265-.756-2.803-.515-4.207-.554zm-.053 6.109c0 .902-.001 1.804-.005 2.708.47.031.94.05 1.41.062.005-.923.003-1.846.003-2.77h-1.408z" fill="url(#a)" fill-rule="evenodd"/>
</svg>
