<svg width="36" height="36" xmlns="http://www.w3.org/2000/svg">
  <defs>
    <linearGradient x1="50%" y1="0%" x2="50%" y2="100%" id="a">
      <stop stop-color="#5BC7AF" offset="0%"/>
      <stop stop-color="#2ED6A1" offset="100%"/>
    </linearGradient>
  </defs>
  <path d="M15.055 0h5.89c4.955 0 6.96.557 8.916 1.603a10.904 10.904 0 0 1 4.536 4.536C35.443 8.094 36 10.099 36 15.055v5.89c0 4.955-.557 6.96-1.603 8.916a10.904 10.904 0 0 1-4.536 4.536C27.906 35.443 25.901 36 20.945 36h-5.89c-4.955 0-6.96-.557-8.916-1.603a10.904 10.904 0 0 1-4.536-4.536C.557 27.906 0 25.901 0 20.945v-5.89C0 10.1.557 8.095 1.603 6.14a10.904 10.904 0 0 1 4.536-4.536C8.094.557 10.099 0 15.055 0zm2.091 19.953h5.143a3.476 3.476 0 0 0 3.467-3.487 3.476 3.476 0 0 0-3.467-3.486h-1.636l-3.508-3.06h5.144a6.52 6.52 0 0 1 6.387 5.29 6.555 6.555 0 0 1-3.932 7.321l4.056 3.54h-4.645l-7.009-6.118zm-2.635-3.91h5.144l-7.007-6.124H8.003l4.053 3.543a6.555 6.555 0 0 0-3.933 7.322 6.52 6.52 0 0 0 6.388 5.289h5.143l-3.506-3.06H14.51a3.476 3.476 0 0 1-3.466-3.487 3.476 3.476 0 0 1 3.466-3.484z" fill="url(#a)" fill-rule="evenodd"/>
</svg>
