<svg width="36" height="36" xmlns="http://www.w3.org/2000/svg">
  <defs>
    <linearGradient x1="50%" y1="0%" x2="50%" y2="100%" id="a">
      <stop stop-color="#6AC1FF" offset="0%"/>
      <stop stop-color="#2576B9" offset="100%"/>
    </linearGradient>
  </defs>
  <path d="M15.055 0h5.89c4.955 0 6.96.557 8.916 1.603a10.904 10.904 0 0 1 4.536 4.536C35.443 8.094 36 10.099 36 15.055v5.89c0 4.955-.557 6.96-1.603 8.916a10.904 10.904 0 0 1-4.536 4.536C27.906 35.443 25.901 36 20.945 36h-5.89c-4.955 0-6.96-.557-8.916-1.603a10.904 10.904 0 0 1-4.536-4.536C.557 27.906 0 25.901 0 20.945v-5.89C0 10.1.557 8.095 1.603 6.14a10.904 10.904 0 0 1 4.536-4.536C8.094.557 10.099 0 15.055 0zm.727 16.547H7.098l-1.006 3.267h8.685l1.005-3.267zm11.611-5.47c.743 0 1.727.344 2.205 1.274.478.929.345 1.407 0 2.654v.001c-.346 1.249-1.47 4.993-1.93 6.322-.46 1.328-1.31 2.443-2.4 3.08l-.097.057c-1.017.597-1.445.847-2.921.847H6.663l1.097-3.557h14.66l2.19-7.12H10.067l1.099-3.558h16.227z" fill="url(#a)" fill-rule="evenodd"/>
</svg>
