<svg width="36" height="36" xmlns="http://www.w3.org/2000/svg">
  <defs>
    <linearGradient x1="50%" y1="0%" x2="50%" y2="100%" id="a">
      <stop stop-color="#FFF" offset="0%"/>
      <stop stop-color="#B8B8B8" offset="100%"/>
    </linearGradient>
  </defs>
  <path d="M15.055 0h5.89c4.955 0 6.96.557 8.916 1.603a10.904 10.904 0 0 1 4.536 4.536C35.443 8.094 36 10.099 36 15.055v5.89c0 4.955-.557 6.96-1.603 8.916a10.904 10.904 0 0 1-4.536 4.536C27.906 35.443 25.901 36 20.945 36h-5.89c-4.955 0-6.96-.557-8.916-1.603a10.904 10.904 0 0 1-4.536-4.536C.557 27.906 0 25.901 0 20.945v-5.89C0 10.1.557 8.095 1.603 6.14a10.904 10.904 0 0 1 4.536-4.536C8.094.557 10.099 0 15.055 0zm-4.54 22.237l1.687-.655-1.389 5.656H26.03l1.032-4.22h-9.126l1.002-4.116 1.686-.675.804-3.25-1.666.674 1.794-7.322h-6.06l-2.46 9.961-1.706.686-.813 3.26z" fill="url(#a)" fill-rule="evenodd"/>
</svg>
