<svg width="36" height="36" xmlns="http://www.w3.org/2000/svg" xmlns:xlink="http://www.w3.org/1999/xlink">
  <defs>
    <linearGradient x1="50%" y1="0%" x2="50%" y2="100%" id="a">
      <stop stop-color="#ACACAC" offset="0%"/>
      <stop stop-color="#555" offset="100%"/>
    </linearGradient>
    <linearGradient x1="50%" y1="0%" x2="50%" y2="100%" id="c">
      <stop stop-color="#FFF" offset="0%"/>
      <stop offset="100%"/>
    </linearGradient>
    <path d="M15.055 0h5.89c4.955 0 6.96.557 8.916 1.603a10.904 10.904 0 0 1 4.536 4.536C35.443 8.094 36 10.099 36 15.055v5.89c0 4.955-.557 6.96-1.603 8.916a10.904 10.904 0 0 1-4.536 4.536C27.906 35.443 25.901 36 20.945 36h-5.89c-4.955 0-6.96-.557-8.916-1.603a10.904 10.904 0 0 1-4.536-4.536C.557 27.906 0 25.901 0 20.945v-5.89C0 10.1.557 8.095 1.603 6.14a10.904 10.904 0 0 1 4.536-4.536C8.094.557 10.099 0 15.055 0zm9.087 22.439h-7.195c.6-.659 1.178-1.336 1.735-2.031a544.31 544.31 0 0 0 4.243-5.233 8.81 8.81 0 0 1 .378-.43c.373-.408.756-.827.838-1.289.158-.834.129-1.707.099-2.605a32.911 32.911 0 0 1-.025-1.105h-4.464V6.62h-3.578v3.204h-4.097v3.827h6.9c-.275.326-.537.63-.79.924a83.18 83.18 0 0 0-.944 1.107 528.778 528.778 0 0 0-4.243 5.234c-.119.159-.26.32-.402.481-.344.391-.7.794-.778 1.237-.158.835-.128 1.71-.098 2.597.012.357.024.715.024 1.073h4.428v3.165h3.725c-.034-.535-.065-1.07-.091-1.605-.028-.526-.056-1.053-.093-1.599h4.427V22.44z" id="b"/>
  </defs>
  <g fill="none" fill-rule="evenodd">
    <use fill="url(#a)" xlink:href="#b"/>
    <use fill-opacity=".12" fill="url(#c)" style="mix-blend-mode:soft-light" xlink:href="#b"/>
  </g>
</svg>
