<svg width="17" height="11" viewBox="0 0 17 11" fill="none" xmlns="http://www.w3.org/2000/svg">
<path id="scale" fill-rule="evenodd" clip-rule="evenodd" d="M16.0002 2.08725C16.0002 1.70308 15.6887 1.3916 15.3046 1.3916H8.22544C7.84126 1.3916 7.52979 1.70308 7.52979 2.08725C7.52979 2.47143 7.84126 2.78291 8.22544 2.78291H15.3046C15.6887 2.78291 16.0002 2.47143 16.0002 2.08725ZM0.695652 2.78291H1.09565C1.47983 2.78291 1.7913 2.47143 1.7913 2.08725C1.7913 1.70308 1.47983 1.3916 1.09565 1.3916H0.695652C0.311478 1.3916 0 1.70308 0 2.08725C0 2.47143 0.311478 2.78291 0.695652 2.78291ZM11.7225 8.0095C11.7225 7.63107 11.4075 7.32324 11.0206 7.32324C10.6338 7.32324 10.3188 7.63107 10.3188 8.0095C10.3188 8.38776 10.6338 8.69559 11.0206 8.69559C11.4075 8.69559 11.7225 8.38776 11.7225 8.0095ZM13.1135 8.00921C13.1135 9.15477 12.1746 10.0866 11.0203 10.0866C9.8662 10.0866 8.92725 9.15477 8.92725 8.00921C8.92725 6.86364 9.8662 5.93164 11.0203 5.93164C12.1746 5.93164 13.1135 6.86364 13.1135 8.00921ZM3.87695 2.07769C3.87695 2.45612 4.19174 2.76395 4.57869 2.76395C4.96548 2.76395 5.28026 2.45612 5.28026 2.07769C5.28026 1.69943 4.96548 1.3916 4.57869 1.3916C4.19174 1.3916 3.87695 1.69943 3.87695 2.07769ZM2.48535 2.07739C2.48535 0.931826 3.42431 0 4.57839 0C5.73231 0 6.67126 0.931826 6.67126 2.07739C6.67126 3.22296 5.73231 4.15496 4.57839 4.15496C3.42431 4.15496 2.48535 3.22296 2.48535 2.07739ZM15.3041 7.30469H14.7088C14.3247 7.30469 14.0132 7.61617 14.0132 8.00034C14.0132 8.38451 14.3247 8.69599 14.7088 8.69599H15.3041C15.6883 8.69599 15.9998 8.38451 15.9998 8.00034C15.9998 7.61617 15.6883 7.30469 15.3041 7.30469ZM8.20052 8.00034C8.20052 8.38451 7.88904 8.69599 7.50487 8.69599H0.695652C0.311478 8.69599 0 8.38451 0 8.00034C0 7.61617 0.311478 7.30469 0.695652 7.30469H7.50487C7.88904 7.30469 8.20052 7.61617 8.20052 8.00034Z" transform="translate(0.262756 0.296875)" fill="#7AC231"/>
</svg>
