<svg width="13" height="11" viewBox="0 0 13 11" fill="none" xmlns="http://www.w3.org/2000/svg">
<path fill-rule="evenodd" clip-rule="evenodd" d="M7.11736 6.64445C7.72288 6.64445 8.13266 6.68727 8.19153 6.69391C8.52007 6.7304 8.76851 7.00802 8.76851 7.33851V8.11965L11.2035 5.64829L8.76851 3.17676V3.9579C8.76851 4.31612 8.47807 4.60655 8.11985 4.60655C6.12898 4.60655 4.5894 5.13861 3.54377 6.18813C3.0675 6.66618 2.74415 7.1997 2.52441 7.70387C4.03594 6.80564 5.94395 6.64445 7.11736 6.64445ZM1.41136 10.3508C1.35719 10.3508 1.30238 10.344 1.2479 10.3297C0.962976 10.2556 0.763677 9.99892 0.762704 9.70443C0.762218 9.60016 0.77438 7.12944 2.62466 5.27219C3.80051 4.0918 5.42862 3.43877 7.47107 3.32655V1.594C7.47107 1.33081 7.63015 1.09357 7.87372 0.993835C8.11761 0.893943 8.39702 0.951187 8.58172 1.13881L12.5761 5.19273C12.8249 5.44538 12.8249 5.85078 12.5761 6.10327L8.58172 10.1572C8.39702 10.3446 8.11761 10.4022 7.87372 10.3022C7.63015 10.2024 7.47107 9.96519 7.47107 9.702V7.9495C6.18122 7.91285 3.09056 8.04161 1.9765 10.0203C1.85958 10.2279 1.6413 10.3508 1.41136 10.3508Z" fill="#F1F2FA"/>
</svg>
