<svg width="17" height="13" viewBox="0 0 17 13" fill="none" xmlns="http://www.w3.org/2000/svg">
<path id="conversation" fill-rule="evenodd" clip-rule="evenodd" d="M12.3252 5.5765C12.2268 5.47859 12.1704 5.34207 12.1704 5.20398C12.1704 5.06746 12.2268 4.93111 12.3252 4.8332C12.5221 4.63893 12.8756 4.63893 13.0708 4.8332C13.1692 4.93111 13.2254 5.06572 13.2254 5.20398C13.2254 5.3438 13.1692 5.47859 13.0708 5.5765C12.9741 5.67441 12.8368 5.73041 12.6979 5.73041C12.5608 5.73041 12.4236 5.67441 12.3252 5.5765ZM7.26465 5.21705C7.26465 4.92731 7.50082 4.69531 7.79213 4.69531H11.1166C11.408 4.69531 11.6441 4.92731 11.6441 5.21705C11.6441 5.50679 11.408 5.73879 11.1166 5.73879H7.79213C7.50082 5.73879 7.26465 5.50679 7.26465 5.21705ZM14.6086 8.348H13.89C13.6997 8.348 13.5404 8.38469 13.4079 8.52069L11.826 10.128V8.96747C11.826 8.58121 11.4653 8.348 11.0767 8.348H6.26074V3.65234H14.6086V8.348ZM3.3678 4.69612C3.0765 4.69612 2.78259 4.8189 2.78259 5.10881V5.46325L2.18676 4.81716C2.08659 4.70447 1.97163 4.69612 1.8205 4.69612H1.04346V1.04395H7.30433V2.26134H5.65233C5.26398 2.26134 4.86954 2.72881 4.86954 3.11525V4.69612H3.3678ZM15.2967 2.26087H8.52174V0.661391C8.52174 0.371652 8.14626 0 7.85496 0H0.527478C0.236174 0 0 0.371652 0 0.661391V5.10835C0 5.39809 0.236174 5.73913 0.527478 5.73913H1.58296L2.97287 7.24835C3.07496 7.3633 3.21965 7.39878 3.36783 7.39878C3.43061 7.39878 3.4593 7.37443 3.52017 7.35148C3.72504 7.27426 3.82609 7.06574 3.82609 6.84765V5.73913H4.86957V8.9673C4.86957 9.35374 5.264 9.73913 5.65235 9.73913H10.4348V11.8551C10.4348 12.1402 10.5779 12.3965 10.8435 12.5037C10.929 12.5379 11.0033 12.5548 11.092 12.5548C11.2788 12.5548 11.4544 12.5167 11.5896 12.3781L14.188 9.73913H15.2967C15.685 9.73913 16 9.35374 16 8.9673V3.11478C16 2.72835 15.685 2.26087 15.2967 2.26087Z" transform="translate(0.262756 0.296875)" fill="#8D96B2"/>
</svg>
