<svg width="27" height="6" viewBox="0 0 27 6" fill="none" xmlns="http://www.w3.org/2000/svg">
<path fill-rule="evenodd" clip-rule="evenodd" d="M0 2.625C0 1.875 0.222654 1.25 0.667969 0.75C1.11328 0.249997 1.78125 0 2.67188 0C3.5625 0 4.23828 0.249997 4.69922 0.75C5.16016 1.25 5.39062 1.875 5.39062 2.625C5.39062 3.34375 5.16016 3.94531 4.69922 4.42969C4.23828 4.91406 3.5625 5.15625 2.67188 5.15625C1.78125 5.15625 1.11328 4.91406 0.667969 4.42969C0.222654 3.94531 0 3.34375 0 2.625ZM10.2422 2.625C10.2422 1.875 10.4648 1.25 10.9102 0.75C11.3555 0.249997 12.0234 0 12.9141 0C13.8047 0 14.4805 0.249997 14.9414 0.75C15.4023 1.25 15.6328 1.875 15.6328 2.625C15.6328 3.34375 15.4023 3.94531 14.9414 4.42969C14.4805 4.91406 13.8047 5.15625 12.9141 5.15625C12.0234 5.15625 11.3555 4.91406 10.9102 4.42969C10.4648 3.94531 10.2422 3.34375 10.2422 2.625ZM19.9688 2.625C19.9688 1.875 20.1914 1.25 20.6367 0.75C21.082 0.249997 21.75 0 22.6406 0C23.5313 0 24.207 0.249997 24.668 0.75C25.1289 1.25 25.3594 1.875 25.3594 2.625C25.3594 3.34375 25.1289 3.94531 24.668 4.42969C24.207 4.91406 23.5313 5.15625 22.6406 5.15625C21.75 5.15625 21.082 4.91406 20.6367 4.42969C20.1914 3.94531 19.9688 3.34375 19.9688 2.625Z" transform="translate(0.963867 0.101562)" fill="#7AC231"/>
</svg>
