<svg width="214" height="162" viewBox="0 0 214 162" fill="none" xmlns="http://www.w3.org/2000/svg">
<path fill-rule="evenodd" clip-rule="evenodd" d="M34.5302 68.0357H133.042C138.612 68.0357 143.129 63.5319 143.129 57.9487C143.129 52.3656 138.612 47.8618 133.042 47.8618H34.5302L64.143 17.6867C68.092 13.7502 68.1097 7.02474 64.1808 3.06309C60.2519 -0.896041 53.8643 -1.07508 49.9153 2.86387L2.97313 49.5841C1.06922 51.483 0 54.0224 0 56.7131C0 59.4038 1.06922 61.9634 2.97313 63.8597L49.9153 110.653C51.8823 112.615 54.457 113.591 57.0291 113.591C59.619 113.591 62.2088 112.592 64.1808 110.608C68.1097 106.649 68.092 100.874 64.143 96.9348L34.5302 68.0357ZM232 104.596C232 107.286 230.928 109.846 229.024 111.745L182.082 158.505C180.115 160.467 177.54 161.368 174.968 161.368C172.378 161.368 169.788 160.21 167.816 158.223C163.887 154.264 163.905 147.538 167.857 143.599L197.467 113.427H98.9551C93.3846 113.427 88.8682 108.923 88.8682 103.34C88.8682 97.7567 93.3846 93.2529 98.9551 93.2529H197.467L167.857 64.3563C163.905 60.4173 163.887 54.6425 167.816 50.6834C171.748 46.7268 178.133 46.7066 182.082 50.6456L229.024 97.4491C230.928 99.3454 232 101.905 232 104.596Z" fill="#8D96B2" fill-opacity="0.1"/>
</svg>
