<svg width="201" height="180" viewBox="0 0 201 180" fill="none" xmlns="http://www.w3.org/2000/svg">
<path opacity="0.1" fill-rule="evenodd" clip-rule="evenodd" d="M49.0635 90.8642L108.033 96.8613C112.845 97.353 116.651 101.159 117.141 105.969L123.135 164.931L183.529 30.4707L49.0635 90.8642ZM116.851 214C116.311 214 115.765 213.957 115.22 213.868C110.665 213.131 107.175 209.427 106.709 204.839L97.7053 116.297L9.15824 107.291C4.57 106.825 0.868329 103.332 0.132071 98.7796C-0.606734 94.2271 1.8084 89.7458 6.01704 87.8555L199.632 0.895564C203.49 -0.839355 208.022 -0.00628854 211.015 2.9846C214.006 5.97549 214.837 10.5077 213.104 14.3648L126.142 207.983C124.478 211.684 120.81 213.998 116.851 214Z" transform="translate(0.762695 0.817383)" fill="#F1F1F1"/>
</svg>
