<svg width="17" height="17" viewBox="0 0 17 17" fill="none" xmlns="http://www.w3.org/2000/svg">
<path fill-rule="evenodd" clip-rule="evenodd" d="M3.66846 6.79375L8.07741 7.24213C8.43722 7.2789 8.7218 7.56347 8.75837 7.92309L9.20656 12.3315L13.722 2.27832L3.66846 6.79375ZM8.73655 16.0001C8.69617 16.0001 8.65541 15.9969 8.61464 15.9902C8.27407 15.9352 8.01312 15.6582 7.97826 15.3152L7.30512 8.69516L0.684732 8.02182C0.341684 7.98696 0.0649222 7.72582 0.00987455 7.38544C-0.0453636 7.04506 0.135208 6.71001 0.449875 6.56868L14.9259 0.0669585C15.2143 -0.0627559 15.5531 -0.00047017 15.7769 0.223149C16.0006 0.446768 16.0627 0.785626 15.9331 1.07401L9.43122 15.5502C9.30684 15.827 9.03255 15.9999 8.73655 16.0001Z" transform="translate(0.762695 0.59375)" fill="#7AC231"/>
</svg>
