<svg width="13" height="11" viewBox="0 0 13 11" fill="none" xmlns="http://www.w3.org/2000/svg">
<path fill-rule="evenodd" clip-rule="evenodd" d="M7.11742 6.64445C7.72294 6.64445 8.13273 6.68727 8.19159 6.69391C8.52013 6.7304 8.76857 7.00802 8.76857 7.33851V8.11965L11.2036 5.64829L8.76857 3.17676V3.9579C8.76857 4.31612 8.47813 4.60655 8.11991 4.60655C6.12904 4.60655 4.58946 5.13861 3.54383 6.18813C3.06756 6.66618 2.74421 7.1997 2.52448 7.70387C4.036 6.80564 5.94401 6.64445 7.11742 6.64445ZM1.41142 10.3508C1.35726 10.3508 1.30244 10.344 1.24796 10.3297C0.963037 10.2556 0.763738 9.99892 0.762765 9.70443C0.762279 9.60016 0.774441 7.12944 2.62472 5.27219C3.80057 4.0918 5.42869 3.43877 7.47113 3.32655V1.594C7.47113 1.33081 7.63021 1.09357 7.87378 0.993835C8.11767 0.893943 8.39708 0.951187 8.58179 1.13881L12.5762 5.19273C12.8249 5.44538 12.8249 5.85078 12.5762 6.10327L8.58179 10.1572C8.39708 10.3446 8.11767 10.4022 7.87378 10.3022C7.63021 10.2024 7.47113 9.96519 7.47113 9.702V7.9495C6.18128 7.91285 3.09062 8.04161 1.97656 10.0203C1.85964 10.2279 1.64137 10.3508 1.41142 10.3508Z" fill="#8D96B2"/>
</svg>
