<?xml version="1.0" encoding="UTF-8"?>
<svg width="17px" height="17px" viewBox="0 0 17 17" version="1.1" xmlns="http://www.w3.org/2000/svg" xmlns:xlink="http://www.w3.org/1999/xlink">
    <!-- Generator: sketchtool 50.2 (55047) - http://www.bohemiancoding.com/sketch -->
    <title>4F43218C-2B09-4603-9942-75A3A59038C3</title>
    <desc>Created with sketchtool.</desc>
    <defs></defs>
    <g id="dappy" stroke="none" stroke-width="1" fill="none" fill-rule="evenodd">
        <g id="icons" transform="translate(-295.000000, -149.000000)" fill="#8D96B2">
            <path d="M298.897626,156.218233 L303.582142,156.694638 C303.96444,156.733697 304.266797,157.036055 304.305654,157.41815 L304.781857,162.102059 L309.579504,151.420586 L298.897626,156.218233 Z M304.282583,166.000122 C304.239678,166.000122 304.196369,165.996681 304.153059,165.989598 C303.791202,165.93111 303.513939,165.636848 303.476904,165.272359 L302.761689,158.238603 L295.727528,157.523186 C295.36304,157.48615 295.06898,157.208686 295.010492,156.847031 C294.951801,156.485376 295.143658,156.129387 295.477992,155.979221 L310.858755,149.071143 C311.16516,148.933322 311.525196,148.9995 311.762994,149.237096 C312.000589,149.474691 312.066566,149.834727 311.928946,150.141132 L305.020667,165.522098 C304.888512,165.816157 304.597083,165.99992 304.282583,166.000122 L304.282583,166.000122 Z" id="direction"></path>
        </g>
    </g>
</svg>