<?xml version="1.0" encoding="UTF-8"?>
<svg width="16px" height="12px" viewBox="0 0 16 12" version="1.1" xmlns="http://www.w3.org/2000/svg" xmlns:xlink="http://www.w3.org/1999/xlink">
    <!-- Generator: sketchtool 50.2 (55047) - http://www.bohemiancoding.com/sketch -->
    <title>02D0D12B-B589-4FBC-B2BA-F6DCD20F4F91</title>
    <desc>Created with sketchtool.</desc>
    <defs></defs>
    <g id="dappy" stroke="none" stroke-width="1" fill="none" fill-rule="evenodd">
        <g id="icons" transform="translate(-81.000000, -241.000000)" fill="#8D96B2">
            <path d="M83.3813913,245.692117 L90.1753043,245.692117 C90.5594783,245.692117 90.8709565,245.381508 90.8709565,244.996465 C90.8709565,244.611421 90.5594783,244.300813 90.1753043,244.300813 L83.3813913,244.300813 L85.4236522,242.219769 C85.696,241.948291 85.6972174,241.484465 85.4262609,241.211248 C85.1553043,240.938204 84.7147826,240.925856 84.4424348,241.197508 L81.2050435,244.419595 C81.0737391,244.550552 81,244.725682 81,244.911248 C81,245.096813 81.0737391,245.273334 81.2050435,245.404117 L84.4424348,248.631248 C84.578087,248.766552 84.7556522,248.833856 84.9330435,248.833856 C85.1116522,248.833856 85.2902609,248.764987 85.4262609,248.628117 C85.6972174,248.355074 85.696,247.956813 85.4236522,247.685161 L83.3813913,245.692117 Z M97,248.213508 C97,248.399074 96.926087,248.575595 96.7947826,248.706552 L93.5573913,251.931421 C93.4217391,252.066726 93.2441739,252.128813 93.0667826,252.128813 C92.8881739,252.128813 92.7095652,252.048987 92.5735652,251.911943 C92.3026087,251.6389 92.3038261,251.175074 92.5763478,250.903421 L94.6184348,248.822552 L87.8245217,248.822552 C87.4403478,248.822552 87.1288696,248.511943 87.1288696,248.1269 C87.1288696,247.741856 87.4403478,247.431248 87.8245217,247.431248 L94.6184348,247.431248 L92.5763478,245.438378 C92.3038261,245.166726 92.3026087,244.768465 92.5735652,244.495421 C92.8446957,244.222552 93.2850435,244.221161 93.5573913,244.492813 L96.7947826,247.720639 C96.926087,247.851421 97,248.027943 97,248.213508 L97,248.213508 Z" id="swap"></path>
        </g>
    </g>
</svg>