<svg width="22" height="22" viewBox="0 0 22 22" fill="none" xmlns="http://www.w3.org/2000/svg">
<path fill-rule="evenodd" clip-rule="evenodd" d="M2.88281 2.56055C2.88281 3.15039 2.76074 3.60156 2.5166 3.91406C2.27246 4.22656 1.91504 4.38281 1.44434 4.38281C0.97949 4.38281 0.624025 4.22949 0.37793 3.92285C0.131835 3.61621 0.0058594 3.17676 0 2.60449V1.81934C0 1.22363 0.123534 0.771486 0.370605 0.462891C0.617677 0.154295 0.97363 0 1.43848 0C1.90332 0 2.25879 0.152831 2.50488 0.458496C2.75098 0.764162 2.87695 1.20312 2.88281 1.77539V2.56055ZM2.03613 1.69922C2.03613 1.3457 1.98779 1.08838 1.89111 0.927246C1.79443 0.766112 1.64356 0.685547 1.43848 0.685547C1.23926 0.685547 1.09229 0.762206 0.997559 0.915527C0.902832 1.06885 0.852539 1.30859 0.84668 1.63477V2.67188C0.84668 3.01953 0.894042 3.27783 0.98877 3.44678C1.0835 3.61572 1.23535 3.7002 1.44434 3.7002C1.65137 3.7002 1.80078 3.61914 1.89258 3.45703C1.98438 3.29492 2.03223 3.04688 2.03613 2.71289V1.69922ZM4.83496 2.10059L5.36816 1.1543H6.27344L5.37109 2.70703L6.31152 4.32422H5.40332L4.83789 3.32812L4.27539 4.32422H3.36426L4.30469 2.70703L3.40527 1.1543H4.31348L4.83496 2.10059ZM6.88379 3.9082C6.88379 3.77344 6.9292 3.66406 7.02002 3.58008C7.11084 3.49609 7.22461 3.4541 7.36133 3.4541C7.5 3.4541 7.61475 3.49609 7.70557 3.58008C7.79639 3.66406 7.8418 3.77344 7.8418 3.9082C7.8418 4.04102 7.79688 4.14893 7.70703 4.23193C7.61719 4.31494 7.50195 4.35645 7.36133 4.35645C7.22266 4.35645 7.1084 4.31494 7.01855 4.23193C6.92871 4.14893 6.88379 4.04102 6.88379 3.9082ZM8.26953 3.9082C8.26953 3.77344 8.31494 3.66406 8.40576 3.58008C8.49658 3.49609 8.61035 3.4541 8.74707 3.4541C8.88574 3.4541 9.00049 3.49609 9.09131 3.58008C9.18213 3.66406 9.22754 3.77344 9.22754 3.9082C9.22754 4.04102 9.18262 4.14893 9.09277 4.23193C9.00293 4.31494 8.8877 4.35645 8.74707 4.35645C8.6084 4.35645 8.49414 4.31494 8.4043 4.23193C8.31445 4.14893 8.26953 4.04102 8.26953 3.9082ZM9.62891 3.9082C9.62891 3.77344 9.67432 3.66406 9.76514 3.58008C9.85596 3.49609 9.96973 3.4541 10.1064 3.4541C10.2451 3.4541 10.3599 3.49609 10.4507 3.58008C10.5415 3.66406 10.5869 3.77344 10.5869 3.9082C10.5869 4.04102 10.542 4.14893 10.4521 4.23193C10.3623 4.31494 10.2471 4.35645 10.1064 4.35645C9.96777 4.35645 9.85352 4.31494 9.76367 4.23193C9.67383 4.14893 9.62891 4.04102 9.62891 3.9082Z" transform="translate(6.04102 8.49292)" fill="#8D96B2"/>
<path fill-rule="evenodd" clip-rule="evenodd" d="M0 8C0 5.19974 0 3.79961 0.544967 2.73005C1.02433 1.78924 1.78924 1.02433 2.73005 0.544967C3.79961 0 5.19974 0 8 0H12C14.8003 0 16.2004 0 17.27 0.544967C18.2108 1.02433 18.9757 1.78924 19.455 2.73005C20 3.79961 20 5.19974 20 8V12C20 14.8003 20 16.2004 19.455 17.27C18.9757 18.2108 18.2108 18.9757 17.27 19.455C16.2004 20 14.8003 20 12 20H8C5.19974 20 3.79961 20 2.73005 19.455C1.78924 18.9757 1.02433 18.2108 0.544967 17.27C0 16.2004 0 14.8003 0 12V8Z" transform="translate(0.762695 0.817139)" stroke="#8D96B2"/>
</svg>
