<svg width="9" height="7" viewBox="0 0 9 7" fill="none" xmlns="http://www.w3.org/2000/svg">
<path fill-rule="evenodd" clip-rule="evenodd" d="M6.42587 0.15462C6.22305 -0.0501625 5.89278 -0.0517277 5.688 0.151098C5.48335 0.353794 5.48165 0.684185 5.68448 0.888837L6.85122 2.06705L0.520437 2.08205C0.232306 2.08284 -0.000780644 2.31684 1.965e-06 2.60497C0.000654139 2.89284 0.234002 3.12553 0.521741 3.12553L6.84587 3.11066L5.68448 4.28353C5.48165 4.48819 5.48335 4.81858 5.688 5.02127C5.78974 5.1221 5.92252 5.17232 6.05518 5.17232C6.18952 5.17232 6.32387 5.12079 6.42587 5.01775L8.47018 2.95323C8.67157 2.74988 8.67157 2.42236 8.47018 2.21901L6.42587 0.15462Z" transform="translate(-0.562256 4.10742) rotate(-35)" fill="#8D96B2"/>
</svg>
