<svg width="9" height="9" viewBox="0 0 9 9" fill="none" xmlns="http://www.w3.org/2000/svg">
<path fill-rule="evenodd" clip-rule="evenodd" d="M1.5 3C2.32843 3 3 2.32843 3 1.5C3 0.671573 2.32843 0 1.5 0C0.671573 0 0 0.671573 0 1.5C0 2.32843 0.671573 3 1.5 3Z" transform="translate(0.762695 0.945312)" fill="#8D96B2"/>
<path fill-rule="evenodd" clip-rule="evenodd" d="M1.5 3C2.32843 3 3 2.32843 3 1.5C3 0.671573 2.32843 0 1.5 0C0.671573 0 0 0.671573 0 1.5C0 2.32843 0.671573 3 1.5 3Z" transform="translate(5.7627 0.945312)" fill="#8D96B2"/>
<path fill-rule="evenodd" clip-rule="evenodd" d="M1.5 3C2.32843 3 3 2.32843 3 1.5C3 0.671573 2.32843 0 1.5 0C0.671573 0 0 0.671573 0 1.5C0 2.32843 0.671573 3 1.5 3Z" transform="translate(0.762695 5.94531)" fill="#8D96B2"/>
<path fill-rule="evenodd" clip-rule="evenodd" d="M1.5 3C2.32843 3 3 2.32843 3 1.5C3 0.671573 2.32843 0 1.5 0C0.671573 0 0 0.671573 0 1.5C0 2.32843 0.671573 3 1.5 3Z" transform="translate(5.7627 5.94531)" fill="#8D96B2"/>
</svg>
