<svg width="11" height="11" viewBox="0 0 11 11" fill="none" xmlns="http://www.w3.org/2000/svg">
<path id="cross" fill-rule="evenodd" clip-rule="evenodd" d="M9.74658 8.52273C10.0845 8.86061 10.0845 9.4087 9.74658 9.74658C9.57754 9.91562 9.3562 10 9.13465 10C8.91311 10 8.69177 9.91562 8.52273 9.74658L5 6.22386L1.47727 9.74658C1.30823 9.91562 1.08689 10 0.865345 10C0.643804 10 0.422456 9.91562 0.253416 9.74658C-0.0844719 9.4087 -0.0844719 8.86061 0.253416 8.52273L3.77614 5L0.253416 1.47727C-0.0844719 1.13939 -0.0844719 0.591304 0.253416 0.253416C0.591496 -0.0844719 1.13919 -0.0844719 1.47727 0.253416L5 3.77614L8.52273 0.253416C8.86081 -0.0844719 9.4085 -0.0844719 9.74658 0.253416C10.0845 0.591304 10.0845 1.13939 9.74658 1.47727L6.22386 5L9.74658 8.52273Z" transform="translate(0.785156 0.337891)" fill="#F1F1F1"/>
</svg>
