<?xml version="1.0" encoding="UTF-8"?>
<svg width="12px" height="12px" viewBox="0 0 12 12" version="1.1" xmlns="http://www.w3.org/2000/svg" xmlns:xlink="http://www.w3.org/1999/xlink">
    <!-- Generator: sketchtool 50.2 (55047) - http://www.bohemiancoding.com/sketch -->
    <title>3DD5EE58-01AA-4DDE-899C-0679E9A13187</title>
    <desc>Created with sketchtool.</desc>
    <defs>
        <path d="M178.576329,207.54717 L178.034305,207.54717 L177.842196,207.361921 C178.51458,206.57976 178.919383,205.564322 178.919383,204.459691 C178.919383,201.996569 176.922813,200 174.459691,200 C171.996569,200 170,201.996569 170,204.459691 C170,206.922813 171.996569,208.919383 174.459691,208.919383 C175.564322,208.919383 176.57976,208.51458 177.361921,207.842196 L177.54717,208.034305 L177.54717,208.576329 L180.977702,212 L182,210.977702 L178.576329,207.54717 L178.576329,207.54717 Z M174.459691,207.54717 C172.751286,207.54717 171.372213,206.168096 171.372213,204.459691 C171.372213,202.751286 172.751286,201.372213 174.459691,201.372213 C176.168096,201.372213 177.54717,202.751286 177.54717,204.459691 C177.54717,206.168096 176.168096,207.54717 174.459691,207.54717 L174.459691,207.54717 Z" id="path-1"></path>
    </defs>
    <g id="dappy" stroke="none" stroke-width="1" fill="none" fill-rule="evenodd">
        <g id="icons" transform="translate(-170.000000, -200.000000)">
            <mask id="mask-2" fill="white">
                <use xlink:href="#path-1"></use>
            </mask>
            <use id="Mask" fill="#8D96B2" xlink:href="#path-1"></use>
        </g>
    </g>
</svg>