<?xml version="1.0" encoding="UTF-8"?>
<svg width="14px" height="13px" viewBox="0 0 14 13" version="1.1" xmlns="http://www.w3.org/2000/svg" xmlns:xlink="http://www.w3.org/1999/xlink">
    <!-- Generator: sketchtool 50.2 (55047) - http://www.bohemiancoding.com/sketch -->
    <title>B9E3E700-E1D6-432A-820E-525756ABFDF7</title>
    <desc>Created with sketchtool.</desc>
    <defs></defs>
    <g id="dappy" stroke="none" stroke-width="1" fill="none" fill-rule="evenodd">
        <g id="icons" transform="translate(-236.000000, -298.000000)" fill="#F1F1F1" fill-rule="nonzero">
            <path d="M246.185444,298.248834 C246.185444,298.111371 246.297914,298 246.436593,298 L249.509178,298 C249.647858,298 249.760327,298.111433 249.760327,298.248834 L249.760327,301.2931 C249.760327,301.430501 249.647858,301.541934 249.509178,301.541934 L248.019738,301.541934 C247.881059,301.541934 247.768589,301.653368 247.768589,301.790769 L247.768589,302.818828 C247.768589,302.956229 247.656119,303.067662 247.51744,303.067662 L244.896548,303.067662 C244.757868,303.067662 244.645399,302.956229 244.645399,302.818828 L244.645399,301.795727 C244.645399,301.658326 244.532929,301.546893 244.39425,301.546893 L243.356502,301.546893 C243.217823,301.546893 243.105353,301.43546 243.105353,301.298059 L243.105353,300.269937 C243.105353,300.132536 243.217823,300.021103 243.356502,300.021103 L244.39425,300.021103 C244.532929,300.021103 244.645399,300.132536 244.645399,300.269937 L244.645399,301.2931 C244.645399,301.430501 244.757868,301.541934 244.896548,301.541934 L245.934296,301.541934 C246.072975,301.541934 246.185444,301.430501 246.185444,301.2931 L246.185444,298.248834 Z M238.860407,304.614958 C238.721727,304.614958 238.609258,304.503525 238.609258,304.366124 L238.609258,303.33794 C238.609258,303.200539 238.721727,303.089106 238.860407,303.089106 L241.314284,303.089106 C241.452963,303.089106 241.565432,303.200539 241.565432,303.33794 L241.565432,304.366124 C241.565432,304.503525 241.452963,304.614958 241.314284,304.614958 L238.860407,304.614958 Z M242.854267,298.021382 C242.992946,298.021382 243.105416,298.132753 243.105478,298.270216 L243.105478,299.298399 C243.105478,299.4358 242.993009,299.547233 242.854329,299.547233 L240.915135,299.547233 C240.776456,299.547233 240.663987,299.4358 240.663987,299.298399 L240.663987,298.270216 C240.663987,298.132815 240.776456,298.021382 240.915135,298.021382 L242.854267,298.021382 Z M244.697255,307.417765 C244.697255,307.555166 244.584785,307.666599 244.446106,307.666599 L243.408358,307.666599 C243.269679,307.666599 243.157209,307.555166 243.157209,307.417765 L243.157209,306.389582 C243.157209,306.252181 243.269679,306.140748 243.408358,306.140748 L244.446106,306.140748 C244.584785,306.140748 244.697255,306.252181 244.697255,306.389582 L244.697255,307.417765 Z M247.768652,306.140748 L247.768589,306.140748 L247.768589,307.089354 C247.768589,307.226755 247.881059,307.338188 248.019738,307.338188 L249.426671,307.338188 C249.565351,307.338188 249.67782,307.449621 249.67782,307.587022 L249.67782,310.631288 C249.67782,310.768689 249.565351,310.880122 249.426671,310.880122 L246.354086,310.880122 C246.215407,310.880122 246.102938,310.768689 246.102938,310.631288 L246.102938,307.666537 L246.102938,307.338188 L246.102938,306.389582 C246.102938,306.252181 245.990468,306.140748 245.851789,306.140748 L244.948404,306.140748 C244.809725,306.140748 244.697255,306.029314 244.697255,305.891913 L244.697255,304.863792 C244.697255,304.726391 244.809725,304.614958 244.948404,304.614958 L247.517503,304.614958 C247.656182,304.614958 247.768652,304.726391 247.768652,304.863792 L247.768652,306.010102 L247.768652,306.140748 Z M247.768652,303.359384 C247.768652,303.221921 247.881059,303.11055 248.0198,303.11055 L249.057548,303.11055 C249.196228,303.11055 249.308697,303.221983 249.308697,303.359384 L249.308697,304.387505 C249.308697,304.524906 249.196228,304.63634 249.057548,304.63634 L248.0198,304.63634 C247.881121,304.63634 247.768652,304.524906 247.768652,304.387505 L247.768652,303.359384 Z M237.791132,306.140748 C237.652453,306.140748 237.539983,306.252181 237.539983,306.389644 L237.539983,307.089416 C237.539983,307.226817 237.652453,307.33825 237.791132,307.33825 L239.323734,307.33825 C239.462413,307.33825 239.574883,307.449683 239.574883,307.587084 L239.574883,310.63135 C239.574883,310.768751 239.462413,310.880184 239.323734,310.880184 L236.251149,310.880184 C236.11247,310.880184 236,310.768751 236,310.63135 L236,307.745495 L236,307.33825 L236,306.061232 C236,305.923831 236.11247,305.812398 236.251149,305.812398 L236.818063,305.812398 C236.956742,305.812398 237.069212,305.700965 237.069212,305.563564 L237.069212,304.863792 C237.069212,304.726391 237.181682,304.614958 237.320361,304.614958 L238.358109,304.614958 C238.496788,304.614958 238.609258,304.726391 238.609258,304.863792 L238.609258,305.891913 C238.609258,306.029314 238.496788,306.140748 238.358109,306.140748 L237.791132,306.140748 Z M242.654912,307.666599 L242.654974,307.666599 L242.654974,308.943555 C242.654974,309.080956 242.767444,309.192389 242.906123,309.192389 L245.502432,309.192389 C245.641112,309.192389 245.753581,309.303822 245.753581,309.441223 L245.753581,310.469407 C245.753581,310.606808 245.641112,310.718241 245.502432,310.718241 L242.895989,310.718241 C242.75731,310.718241 242.644841,310.606808 242.644841,310.469407 L242.644841,309.441223 C242.644841,309.303822 242.532371,309.192389 242.393692,309.192389 L241.366077,309.192389 C241.227398,309.192389 241.114928,309.080956 241.114928,308.943555 L241.114928,307.915433 C241.114928,307.778032 241.002459,307.666599 240.86378,307.666599 L240.276536,307.666599 C240.137856,307.666599 240.025387,307.555166 240.025387,307.417765 L240.025387,306.389582 C240.025387,306.252181 240.137856,306.140748 240.276536,306.140748 L241.366077,306.140748 C241.504756,306.140748 241.617226,306.029314 241.617226,305.891913 L241.617226,304.863792 C241.617226,304.726391 241.729696,304.614958 241.868375,304.614958 L242.854204,304.614958 C242.992883,304.614958 243.105353,304.503525 243.105353,304.366124 L243.105353,303.359384 C243.105353,303.221983 243.217823,303.11055 243.356502,303.11055 L244.39425,303.11055 C244.532929,303.11055 244.645399,303.221983 244.645399,303.359384 L244.645399,304.387505 C244.645399,304.524906 244.532929,304.63634 244.39425,304.63634 L243.408358,304.63634 C243.269679,304.63634 243.157209,304.747773 243.157209,304.885174 L243.157209,305.891913 C243.157209,306.029314 243.04474,306.140748 242.90606,306.140748 C242.767381,306.140748 242.654912,306.252181 242.654912,306.389582 L242.654912,307.666599 Z M243.105416,302.840272 C243.105416,302.977735 242.992946,303.089106 242.854267,303.089106 L241.816581,303.089106 C241.677902,303.089106 241.565432,302.977673 241.565432,302.840272 L241.565432,301.812088 C241.565432,301.674687 241.677902,301.563254 241.816581,301.563254 L242.854267,301.563254 C242.992946,301.563254 243.105416,301.674687 243.105416,301.812088 L243.105416,302.840272 Z M237.320423,303.089106 C237.181682,303.089106 237.069275,302.977735 237.069212,302.840334 L237.069212,301.81215 C237.069212,301.674749 236.956742,301.563316 236.818063,301.563316 L236.251149,301.563316 C236.11247,301.563316 236,301.451883 236,301.314482 L236,298.270216 C236,298.132753 236.11247,298.021382 236.251149,298.021382 L239.323734,298.021382 C239.462413,298.021382 239.574883,298.132815 239.574883,298.270216 L239.574883,299.78863 C239.574883,299.926031 239.687352,300.037465 239.826032,300.037465 L240.86378,300.037465 C241.002459,300.037465 241.114928,300.148898 241.114928,300.286299 L241.114928,301.31442 C241.114928,301.451821 241.002459,301.563254 240.86378,301.563254 L239.412934,301.563254 L238.860469,301.563254 C238.72179,301.563254 238.60932,301.674687 238.60932,301.812088 L238.60932,302.840272 C238.60932,302.977673 238.496851,303.089106 238.358172,303.089106 L237.320423,303.089106 Z" id="Combined-Shape"></path>
        </g>
    </g>
</svg>