<svg width="9" height="9" viewBox="0 0 9 9" fill="none" xmlns="http://www.w3.org/2000/svg">
<path id="cross" fill-rule="evenodd" clip-rule="evenodd" d="M7.79723 6.81815C8.06754 7.08846 8.06754 7.52692 7.79723 7.79723C7.662 7.93246 7.48492 8 7.30769 8C7.13046 8 6.95338 7.93246 6.81815 7.79723L3.99998 4.97906L1.18181 7.79723C1.04658 7.93246 0.869504 8 0.692273 8C0.515041 8 0.337963 7.93246 0.202732 7.79723C-0.0675773 7.52692 -0.0675773 7.08846 0.202732 6.81815L3.0209 3.99998L0.202732 1.18181C-0.0675773 0.911504 -0.0675773 0.473041 0.202732 0.202732C0.473195 -0.0675773 0.91135 -0.0675773 1.18181 0.202732L3.99998 3.0209L6.81815 0.202732C7.08861 -0.0675773 7.52677 -0.0675773 7.79723 0.202732C8.06754 0.473041 8.06754 0.911504 7.79723 1.18181L4.97906 3.99998L7.79723 6.81815Z" transform="translate(0.262756 0.296875)" fill="#8D96B2"/>
</svg>
