<?xml version="1.0" encoding="UTF-8"?>
<svg width="11px" height="14px" viewBox="0 0 11 14" version="1.1" xmlns="http://www.w3.org/2000/svg" xmlns:xlink="http://www.w3.org/1999/xlink">
    <!-- Generator: sketchtool 50.2 (55047) - http://www.bohemiancoding.com/sketch -->
    <title>86B1B81B-CC72-4846-A57E-028C3A61015C</title>
    <desc>Created with sketchtool.</desc>
    <defs></defs>
    <g id="dappy" stroke="none" stroke-width="1" fill="none" fill-rule="evenodd">
        <g id="icons" transform="translate(-170.000000, -250.000000)" fill="#F1F1F1">
            <path d="M171.953488,263.023256 L171.953488,258.927442 C171.953488,258.388116 171.51607,257.950698 170.976744,257.950698 C170.437419,257.950698 170,258.388116 170,258.927442 L170,263.023256 C170,263.562581 170.437419,264 170.976744,264 C171.51607,264 171.953488,263.562581 171.953488,263.023256 M176.349326,263.023256 L176.349326,254.951605 C176.349326,254.412279 175.911907,253.97486 175.372581,253.97486 C174.833093,253.97486 174.395837,254.412279 174.395837,254.951605 L174.395837,263.023256 C174.395837,263.562581 174.833093,264 175.372581,264 C175.911907,264 176.349326,263.562581 176.349326,263.023256 M179.767442,264 C179.228116,264 178.790698,263.562581 178.790698,263.023256 L178.790698,250.976744 C178.790698,250.437419 179.228116,250 179.767442,250 C180.306767,250 180.744186,250.437419 180.744186,250.976744 L180.744186,263.023256 C180.744186,263.562581 180.306767,264 179.767442,264" id="graph-bar"></path>
        </g>
    </g>
</svg>