<svg width="16" height="14" viewBox="0 0 16 14" fill="none" xmlns="http://www.w3.org/2000/svg">
<path opacity="0.3" fill-rule="evenodd" clip-rule="evenodd" d="M13.0776 3.74245C12.7788 3.50807 12.4414 3.26296 12.0723 3.02468L13.9194 1.12526C14.1724 0.865496 14.1694 0.44655 13.9131 0.190691C13.6567 -0.0661448 13.2437 -0.0632152 12.9907 0.197527L10.8877 2.35866C9.93995 1.90358 8.8667 1.57546 7.7417 1.57546H7.70118C5.57081 1.59108 3.62598 2.81276 2.36915 3.83425C1.12647 4.84499 -0.002924 6.15456 5.68724e-06 6.58132C0.00342366 7.06471 1.09962 8.32643 2.39405 9.3362C2.66504 9.54811 3.00831 9.79714 3.40821 10.0491L1.54346 11.9661C1.29053 12.2258 1.29346 12.6448 1.5503 12.9007C1.67725 13.0276 1.84278 13.0911 2.00782 13.0911C2.17628 13.0911 2.34473 13.0257 2.47217 12.8938L4.60059 10.7063C5.52442 11.1419 6.60206 11.4768 7.72901 11.4768H7.77003C10.0332 11.4602 12.0815 10.0901 13.1011 9.27468C14.3892 8.24343 15.4746 6.96022 15.4712 6.47096C15.4678 6.01686 14.3496 4.74245 13.0776 3.74245ZM4.53712 6.54909C4.52491 4.75905 5.94678 3.29714 7.7129 3.28444C8.36426 3.27956 8.97071 3.47292 9.47852 3.80886L5.07862 8.33132C4.74122 7.82155 4.542 7.20925 4.53712 6.54909ZM6.01075 9.25612C6.51465 9.58425 7.11426 9.77272 7.75782 9.76784C9.52442 9.75514 10.9458 8.29421 10.9336 6.50319C10.9292 5.85085 10.7344 5.24538 10.4038 4.73952L6.01075 9.25612Z" transform="translate(0.262756 0.296875)" fill="#8D96B2"/>
</svg>
